SplineFontDB: 3.2
FontName: Picanco_et_al
FullName: Picanco et al
FamilyName: Picanco et al
Weight: Regular
Copyright: Copyright (c) 2023, Picanco et al.
UComments: "2023-9-1: Created with FontForge (http://fontforge.org)"
Version: 002.000
ItalicAngle: 0
UnderlinePosition: -100
UnderlineWidth: 50
Ascent: 800
Descent: 200
InvalidEm: 0
LayerCount: 2
Layer: 0 0 "Back" 1
Layer: 1 0 "Fore" 0
XUID: [1021 211 2006320833 25158]
StyleMap: 0x0000
FSType: 0
OS2Version: 0
OS2_WeightWidthSlopeOnly: 0
OS2_UseTypoMetrics: 1
CreationTime: 1693566979
ModificationTime: 1694637877
OS2TypoAscent: 0
OS2TypoAOffset: 1
OS2TypoDescent: 0
OS2TypoDOffset: 1
OS2TypoLinegap: 90
OS2WinAscent: 0
OS2WinAOffset: 1
OS2WinDescent: 0
OS2WinDOffset: 1
HheadAscent: 0
HheadAOffset: 1
HheadDescent: 0
HheadDOffset: 1
OS2Vendor: 'PfEd'
MarkAttachClasses: 1
DEI: 91125
Encoding: ISO8859-1
UnicodeInterp: none
NameList: AGL For New Fonts
DisplaySize: -48
AntiAlias: 1
FitToEm: 0
WinInfo: 0 19 8
BeginPrivate: 0
EndPrivate
Grid
99 298 m 4
 99 520 279 700 500 700 c 4
 721 700 901 520 901 298 c 4
 901 76 721 -104 500 -104 c 4
 279 -104 99 76 99 298 c 4
EndSplineSet
BeginChars: 256 36

StartChar: B
Encoding: 66 66 0
Width: 566
VWidth: 886
Flags: HW
LayerCount: 2
Fore
SplineSet
394 -13 m 0
 392 -16 381 -16 379 -16 c 0
 353 -16 317 146 292 150 c 0
 292 150 l 0
 285 150 283 118 283 77 c 0
 283 44 284 5 284 -29 c 0
 284 -69 282 -99 275 -99 c 0
 261 -64 l 0
 260 -64 257 -38 257 -23 c 0
 257 12 261 32 261 89 c 0
 261 127 260 161 255 173 c 0
 254 175 253 177 252 177 c 0
 237 177 203 44 196 44 c 0
 196 44 l 24
 177 42 147 41 147 41 c 0
 135 41 125 48 113 82 c 0
 94 134 86 186 86 237 c 0
 86 360 133 476 197 562 c 0
 203 571 204 587 204 604 c 0
 204 614 204 623 204 632 c 0
 204 650 200 658 207 663 c 0
 212 670 l 2
 212 670 227 609 245 535 c 0
 250 514 254 493 258 470 c 0
 262 444 266 417 268 392 c 0
 269 377 281 344 283 390 c 0
 285 417 285 449 285 479 c 0
 285 540 283 597 283 597 c 1
 283 607 284 615 284 623 c 0
 285 666 285 681 286 687 c 0
 287 689 287 690 288 691 c 0
 306 689 307 466 323 456 c 0
 326 454 329 453 331 453 c 0
 364 453 401 545 427 545 c 0
 434 545 439 540 444 526 c 0
 469 459 481 382 481 306 c 0
 481 183 441 72 394 -13 c 0
196 454 m 0
 193 473 188 481 183 481 c 0
 163 481 130 336 130 225 c 0
 130 191 133 160 140 137 c 0
 146 115 153 107 161 107 c 0
 192 107 234 269 280 269 c 0
 304 269 329 227 354 99 c 0
 356 89 358 85 362 85 c 0
 385 85 433 345 433 455 c 0
 433 484 429 503 421 503 c 0
 413 503 399 483 379 437 c 0
 366 405 352 381 341 361 c 0
 315 317 292 300 274 300 c 0
 231 300 206 392 196 454 c 0
EndSplineSet
Validated: 1
EndChar

StartChar: F
Encoding: 70 70 1
Width: 562
VWidth: 877
Flags: HW
LayerCount: 2
Fore
SplineSet
265 -60 m 0
 247 -60 232 -81 216 -81 c 0
 213 -81 209 -80 206 -77 c 0
 125 -26 97 15 97 186 c 0
 97 271 137 306 161 370 c 0
 163 375 164 380 164 385 c 0
 164 434 79 472 79 521 c 0
 79 526 80 530 81 535 c 0
 86 549 111 553 142 553 c 0
 195 553 267 540 283 540 c 0
 310 540 365 555 411 555 c 0
 443 555 471 548 483 523 c 0
 484 523 484 522 484 521 c 0
 484 503 402 501 402 481 c 0
 402 481 402 479 403 478 c 0
 431 412 444 323 444 230 c 0
 444 67 407 -5 332 -62 c 0
 325 -67 319 -70 312 -70 c 0
 297 -70 283 -60 265 -60 c 0
241 470 m 0
 241 474 242 477 242 480 c 0
 242 481 242 481 241 481 c 0
 232 481 129 211 122 82 c 0
 122 77 121 72 121 67 c 0
 121 9 142 -6 170 -6 c 0
 199 -6 237 10 269 10 c 0
 298 10 370 24 395 85 c 0
 412 127 426 211 426 278 c 0
 426 334 416 377 393 377 c 0
 392 377 391 377 390 377 c 0
 342 369 326 343 326 304 c 0
 326 248 360 166 381 82 c 0
 381 81 381 80 381 79 c 0
 381 69 363 66 342 66 c 0
 327 66 309 67 295 67 c 0
 279 67 267 66 263 61 c 0
 259 56 254 53 249 53 c 0
 231 53 211 85 195 85 c 0
 192 85 191 85 189 83 c 0
 188 82 188 82 187 82 c 0
 184 82 172 61 172 67 c 0
 346 415 l 1
 354 462 l 0
 353 462 287 350 246 350 c 0
 233 350 230 352 230 384 c 0
 230 404 233 432 241 470 c 0
EndSplineSet
Validated: 1
EndChar

StartChar: N
Encoding: 78 78 2
Width: 571
VWidth: 888
Flags: HW
LayerCount: 2
Fore
SplineSet
85 299 m 0
 85 375 151 377 171 438 c 0
 206 547 214 687 286 687 c 0
 358 687 358 515 393 404 c 0
 411 346 488 374 488 299 c 0
 488 131 439 -23 355 -65 c 0
 353 -66 351 -67 350 -67 c 0
 330 -67 309 10 287 10 c 0
 268 10 250 -74 232 -74 c 0
 232 -74 230 -74 229 -74 c 0
 145 -27 85 123 85 299 c 0
414 298 m 0
 414 302 414 304 413 304 c 0
 405 304 370 167 355 167 c 0
 353 167 353 167 351 171 c 0
 328 235 360 588 315 588 c 0
 306 588 307 143 299 140 c 0
 296 139 292 133 288 133 c 0
 282 133 275 142 273 184 c 0
 272 198 272 215 272 234 c 0
 272 292 275 368 275 433 c 0
 275 490 273 538 265 558 c 0
 264 560 263 567 261 575 c 0
 260 581 255 584 253 588 c 0
 251 592 247 580 244 580 c 0
 237 570 l 0
 228 570 227 493 227 407 c 0
 227 374 227 340 227 308 c 0
 227 228 226 161 219 161 c 0
 218 161 217 162 217 162 c 0
 196 193 166 306 158 306 c 0
 157 306 156 304 156 298 c 0
 156 289 156 279 156 269 c 0
 156 186 157 61 188 24 c 0
 192 20 196 18 200 18 c 0
 224 18 262 65 285 65 c 0
 308 65 355 27 383 27 c 0
 390 27 396 30 400 35 c 0
 415 55 419 99 419 147 c 0
 419 199 414 257 414 298 c 0
EndSplineSet
Validated: 1
EndChar

StartChar: L
Encoding: 76 76 3
Width: 527
VWidth: 887
Flags: HW
LayerCount: 2
Fore
SplineSet
93 236 m 0
 93 330 102 447 132 515 c 0
 141 535 136 604 154 605 c 0
 161 605 167 606 172 606 c 0
 212 606 224 595 224 580 c 0
 224 558 197 527 197 510 c 0
 197 504 201 500 212 499 c 0
 213 499 214 499 215 499 c 0
 253 499 304 543 338 543 c 0
 350 543 360 538 366 524 c 0
 377 500 392 506 403 472 c 0
 410 451 416 428 421 404 c 0
 430 361 430 349 430 302 c 0
 430 295 430 288 429 278 c 0
 429 267 262 209 262 187 c 0
 262 184 264 183 267 183 c 0
 285 183 341 216 360 216 c 0
 364 216 366 215 366 211 c 0
 366 210 l 0
 366 163 426 70 426 56 c 0
 404 -1 l 0
 383 34 331 55 294 55 c 0
 272 55 255 48 255 31 c 0
 255 16 269 -5 302 -35 c 0
 323 -53 331 -64 331 -70 c 0
 331 -73 328 -75 322 -75 c 0
 295 -75 212 -40 195 -40 c 0
 193 -40 193 -40 192 -40 c 0
 110 12 l 0
 101 31 105 78 100 103 c 0
 94 133 93 156 93 187 c 0
 93 202 93 218 93 236 c 0
286 241 m 0
 249 311 233 362 233 395 c 0
 233 423 245 437 262 437 c 0
 294 437 346 394 394 307 c 0
 399 298 393 327 391 335 c 0
 310 453 l 0
 301 469 295 474 290 474 c 0
 283 474 276 464 258 464 c 0
 239 464 229 468 223 468 c 0
 215 468 212 462 202 436 c 0
 201 434 201 431 201 428 c 0
 201 394 241 292 241 264 c 0
 241 262 240 260 240 259 c 0
 239 256 237 255 236 255 c 0
 218 255 170 374 158 374 c 0
 157 374 156 374 156 373 c 0
 137 343 128 310 128 273 c 0
 128 212 152 143 188 67 c 0
 191 59 193 46 208 46 c 0
 221 46 244 55 284 84 c 0
 287 86 351 116 358 133 c 0
 358 134 359 135 359 136 c 0
 359 158 213 129 188 181 c 0
 286 241 l 0
EndSplineSet
Validated: 1
EndChar

StartChar: A
Encoding: 65 65 4
Width: 494
VWidth: 886
Flags: HW
LayerCount: 2
Fore
SplineSet
389 573 m 0
 393 568 394 559 394 550 c 0
 394 498 347 396 347 349 c 0
 347 342 348 337 350 333 c 0
 374 287 389 232 389 174 c 0
 389 125 378 74 353 26 c 0
 314 -50 271 -89 228 -89 c 0
 186 -89 143 -51 104 25 c 0
 101 30 100 37 100 46 c 0
 100 108 163 251 163 305 c 0
 163 312 162 317 160 321 c 0
 135 368 119 411 119 457 c 0
 119 493 128 531 152 576 c 0
 188 645 224 673 259 673 c 0
 301 673 344 633 389 573 c 0
155 126 m 0
 155 123 155 120 155 117 c 0
 155 67 178 46 209 46 c 0
 250 46 303 83 332 137 c 0
 334 140 335 142 335 145 c 0
 335 152 328 154 317 154 c 0
 286 154 218 131 194 131 c 0
 189 131 185 132 185 135 c 0
 185 136 186 137 187 138 c 0
 196 157 214 151 306 197 c 0
 268 205 l 0
 268 211 230 293 230 293 c 0
 236 293 255 313 259 313 c 0
 260 313 260 313 260 312 c 0
 260 311 l 0
 260 310 260 308 260 306 c 0
 260 295 264 273 264 267 c 0
 264 224 280 254 320 227 c 0
 344 195 l 0
 324 289 l 0
 324 297 304 314 304 319 c 0
 282 365 l 0
 295 389 311 400 322 421 c 0
 333 442 338 462 338 472 c 0
 338 474 338 476 338 477 c 0
 304 541 275 613 243 613 c 0
 230 613 217 601 202 573 c 0
 182 534 159 456 154 405 c 0
 154 404 154 402 154 400 c 0
 154 399 l 0
 159 399 225 537 234 537 c 0
 238 537 240 533 240 527 c 0
 240 466 240 447 257 447 c 0
 264 447 276 451 292 457 c 1
 194 321 l 0
 194 320 155 231 155 126 c 0
EndSplineSet
Validated: 1
EndChar

StartChar: E
Encoding: 69 69 5
Width: 573
VWidth: 887
Flags: HW
LayerCount: 2
Fore
SplineSet
84 293 m 0
 86 300 l 0
 86 306 254 273 254 530 c 0
 254 558 252 590 247 627 c 0
 245 635 245 642 245 649 c 0
 245 675 254 687 268 687 c 0
 325 687 475 490 490 321 c 0
 490 319 490 316 490 314 c 0
 490 197 290 -83 261 -83 c 0
 259 -83 257 -81 257 -77 c 0
 257 -76 257 -74 258 -72 c 0
 263 -44 266 -18 266 5 c 0
 266 163 154 218 84 293 c 0
415 297 m 0
 416 297 416 297 416 297 c 0
 417 297 417 298 417 299 c 0
 417 325 291 571 280 571 c 0
 279 571 279 571 279 569 c 0
 279 567 280 560 284 550 c 0
 305 487 314 440 314 403 c 0
 314 257 177 291 177 276 c 0
 177 274 180 272 185 268 c 0
 224 236 287 279 287 72 c 0
 287 70 287 68 287 65 c 0
 287 64 287 63 287 63 c 0
 287 49 287 43 289 43 c 0
 297 43 335 299 403 299 c 0
 407 299 411 299 415 297 c 0
EndSplineSet
Validated: 1
EndChar

StartChar: I
Encoding: 73 73 6
Width: 571
VWidth: 878
Flags: HW
LayerCount: 2
Fore
SplineSet
85 297 m 0
 85 393 134 405 164 473 c 0
 179 507 187 564 249 564 c 0
 257 564 264 564 273 564 c 0
 288 564 303 561 317 544 c 0
 319 541 323 540 327 540 c 0
 349 540 392 583 410 583 c 0
 415 583 418 579 418 571 c 0
 418 571 418 571 418 570 c 0
 418 539 302 375 302 349 c 0
 302 348 303 348 303 347 c 0
 304 346 304 345 306 345 c 0
 321 345 381 463 399 463 c 0
 400 463 l 0
 449 453 488 378 488 297 c 0
 488 196 426 180 393 111 c 0
 355 34 344 -91 286 -91 c 0
 230 -91 216 24 180 95 c 0
 143 165 85 191 85 297 c 0
414 296 m 0
 414 316 411 323 404 323 c 0
 374 323 288 162 237 162 c 0
 235 162 232 162 230 163 c 0
 229 163 229 164 229 166 c 0
 229 200 286 490 286 524 c 0
 286 527 286 527 285 527 c 0
 213 527 156 423 156 296 c 0
 156 168 213 63 285 63 c 0
 357 63 414 168 414 296 c 0
EndSplineSet
Validated: 1
EndChar

StartChar: O
Encoding: 79 79 7
Width: 569
VWidth: 889
Flags: HW
LayerCount: 2
Fore
SplineSet
85 299 m 0
 85 300 l 0
 85 355 101 375 127 375 c 0
 211 375 396 146 412 146 c 0
 413 146 413 146 413 147 c 0
 413 157 378 215 286 361 c 0
 249 419 235 471 235 514 c 0
 235 608 298 664 334 664 c 0
 347 664 357 655 357 638 c 0
 357 629 354 616 347 600 c 0
 314 521 301 470 301 436 c 0
 301 391 326 380 357 380 c 0
 385 380 416 388 438 388 c 0
 452 388 461 386 464 376 c 0
 478 335 485 293 485 254 c 0
 485 122 412 10 313 -32 c 0
 301 -38 288 -41 275 -41 c 0
 178 -41 85 110 85 299 c 0
240 120 m 0
 238 140 237 157 237 171 c 0
 237 200 240 220 240 226 c 0
 240 228 240 229 240 229 c 0
 237 229 228 213 202 178 c 0
 192 165 184 160 178 160 c 0
 158 160 157 222 156 222 c 0
 156 222 156 211 154 180 c 0
 153 167 152 155 152 143 c 0
 152 55 179 9 256 9 c 0
 265 9 274 10 284 10 c 0
 307 13 315 13 315 14 c 0
 315 16 254 27 240 120 c 0
EndSplineSet
Validated: 1
EndChar

StartChar: zero
Encoding: 48 48 8
Width: 571
VWidth: 887
Flags: HW
LayerCount: 2
Fore
SplineSet
85 299 m 0
 85 513 175 687 286 687 c 0
 397 687 488 513 488 299 c 0
 488 85 397 -89 286 -89 c 0
 175 -89 85 85 85 299 c 0
414 297 m 0
 414 425 357 529 285 529 c 0
 214 529 156 425 156 297 c 0
 156 169 214 65 285 65 c 0
 357 65 414 169 414 297 c 0
EndSplineSet
Validated: 1
EndChar

StartChar: Agrave
Encoding: 192 192 9
Width: 494
VWidth: 886
Flags: HW
LayerCount: 2
Fore
SplineSet
389 573 m 0
 393 568 394 559 394 550 c 0
 394 498 347 396 347 349 c 0
 347 342 348 337 350 333 c 0
 374 287 389 232 389 174 c 0
 389 125 378 74 353 26 c 0
 314 -50 271 -89 228 -89 c 0
 186 -89 143 -51 104 25 c 0
 101 30 100 37 100 46 c 0
 100 108 163 251 163 305 c 0
 163 312 162 317 160 321 c 0
 135 368 119 411 119 457 c 0
 119 493 128 531 152 576 c 0
 188 645 224 673 259 673 c 0
 301 673 344 633 389 573 c 0
155 126 m 0
 155 123 155 120 155 117 c 0
 155 67 178 46 209 46 c 0
 250 46 303 83 332 137 c 0
 334 140 335 142 335 145 c 0
 335 152 328 154 317 154 c 0
 286 154 218 131 194 131 c 0
 189 131 185 132 185 135 c 0
 185 136 186 137 187 138 c 0
 196 157 214 151 306 197 c 0
 268 205 l 0
 268 211 230 293 230 293 c 0
 236 293 255 313 259 313 c 0
 260 313 260 313 260 312 c 0
 260 311 l 0
 260 310 260 308 260 306 c 0
 260 295 264 273 264 267 c 0
 264 224 280 254 320 227 c 0
 344 195 l 0
 324 289 l 0
 324 297 304 314 304 319 c 0
 282 365 l 0
 295 389 311 400 322 421 c 0
 333 442 338 462 338 472 c 0
 338 474 338 476 338 477 c 0
 304 541 275 613 243 613 c 0
 230 613 217 601 202 573 c 0
 182 534 159 456 154 405 c 0
 154 404 154 402 154 400 c 0
 154 399 l 0
 159 399 225 537 234 537 c 0
 238 537 240 533 240 527 c 0
 240 466 240 447 257 447 c 0
 264 447 276 451 292 457 c 1
 194 321 l 0
 194 320 155 231 155 126 c 0
EndSplineSet
EndChar

StartChar: Aacute
Encoding: 193 193 10
Width: 494
VWidth: 886
Flags: HW
LayerCount: 2
Fore
SplineSet
389 573 m 0
 393 568 394 559 394 550 c 0
 394 498 347 396 347 349 c 0
 347 342 348 337 350 333 c 0
 374 287 389 232 389 174 c 0
 389 125 378 74 353 26 c 0
 314 -50 271 -89 228 -89 c 0
 186 -89 143 -51 104 25 c 0
 101 30 100 37 100 46 c 0
 100 108 163 251 163 305 c 0
 163 312 162 317 160 321 c 0
 135 368 119 411 119 457 c 0
 119 493 128 531 152 576 c 0
 188 645 224 673 259 673 c 0
 301 673 344 633 389 573 c 0
155 126 m 0
 155 123 155 120 155 117 c 0
 155 67 178 46 209 46 c 0
 250 46 303 83 332 137 c 0
 334 140 335 142 335 145 c 0
 335 152 328 154 317 154 c 0
 286 154 218 131 194 131 c 0
 189 131 185 132 185 135 c 0
 185 136 186 137 187 138 c 0
 196 157 214 151 306 197 c 0
 268 205 l 0
 268 211 230 293 230 293 c 0
 236 293 255 313 259 313 c 0
 260 313 260 313 260 312 c 0
 260 311 l 0
 260 310 260 308 260 306 c 0
 260 295 264 273 264 267 c 0
 264 224 280 254 320 227 c 0
 344 195 l 0
 324 289 l 0
 324 297 304 314 304 319 c 0
 282 365 l 0
 295 389 311 400 322 421 c 0
 333 442 338 462 338 472 c 0
 338 474 338 476 338 477 c 0
 304 541 275 613 243 613 c 0
 230 613 217 601 202 573 c 0
 182 534 159 456 154 405 c 0
 154 404 154 402 154 400 c 0
 154 399 l 0
 159 399 225 537 234 537 c 0
 238 537 240 533 240 527 c 0
 240 466 240 447 257 447 c 0
 264 447 276 451 292 457 c 1
 194 321 l 0
 194 320 155 231 155 126 c 0
EndSplineSet
EndChar

StartChar: Acircumflex
Encoding: 194 194 11
Width: 494
VWidth: 886
Flags: HW
LayerCount: 2
Fore
SplineSet
389 573 m 0
 393 568 394 559 394 550 c 0
 394 498 347 396 347 349 c 0
 347 342 348 337 350 333 c 0
 374 287 389 232 389 174 c 0
 389 125 378 74 353 26 c 0
 314 -50 271 -89 228 -89 c 0
 186 -89 143 -51 104 25 c 0
 101 30 100 37 100 46 c 0
 100 108 163 251 163 305 c 0
 163 312 162 317 160 321 c 0
 135 368 119 411 119 457 c 0
 119 493 128 531 152 576 c 0
 188 645 224 673 259 673 c 0
 301 673 344 633 389 573 c 0
155 126 m 0
 155 123 155 120 155 117 c 0
 155 67 178 46 209 46 c 0
 250 46 303 83 332 137 c 0
 334 140 335 142 335 145 c 0
 335 152 328 154 317 154 c 0
 286 154 218 131 194 131 c 0
 189 131 185 132 185 135 c 0
 185 136 186 137 187 138 c 0
 196 157 214 151 306 197 c 0
 268 205 l 0
 268 211 230 293 230 293 c 0
 236 293 255 313 259 313 c 0
 260 313 260 313 260 312 c 0
 260 311 l 0
 260 310 260 308 260 306 c 0
 260 295 264 273 264 267 c 0
 264 224 280 254 320 227 c 0
 344 195 l 0
 324 289 l 0
 324 297 304 314 304 319 c 0
 282 365 l 0
 295 389 311 400 322 421 c 0
 333 442 338 462 338 472 c 0
 338 474 338 476 338 477 c 0
 304 541 275 613 243 613 c 0
 230 613 217 601 202 573 c 0
 182 534 159 456 154 405 c 0
 154 404 154 402 154 400 c 0
 154 399 l 0
 159 399 225 537 234 537 c 0
 238 537 240 533 240 527 c 0
 240 466 240 447 257 447 c 0
 264 447 276 451 292 457 c 1
 194 321 l 0
 194 320 155 231 155 126 c 0
EndSplineSet
EndChar

StartChar: Atilde
Encoding: 195 195 12
Width: 494
VWidth: 886
Flags: HW
LayerCount: 2
Fore
SplineSet
389 573 m 0
 393 568 394 559 394 550 c 0
 394 498 347 396 347 349 c 0
 347 342 348 337 350 333 c 0
 374 287 389 232 389 174 c 0
 389 125 378 74 353 26 c 0
 314 -50 271 -89 228 -89 c 0
 186 -89 143 -51 104 25 c 0
 101 30 100 37 100 46 c 0
 100 108 163 251 163 305 c 0
 163 312 162 317 160 321 c 0
 135 368 119 411 119 457 c 0
 119 493 128 531 152 576 c 0
 188 645 224 673 259 673 c 0
 301 673 344 633 389 573 c 0
155 126 m 0
 155 123 155 120 155 117 c 0
 155 67 178 46 209 46 c 0
 250 46 303 83 332 137 c 0
 334 140 335 142 335 145 c 0
 335 152 328 154 317 154 c 0
 286 154 218 131 194 131 c 0
 189 131 185 132 185 135 c 0
 185 136 186 137 187 138 c 0
 196 157 214 151 306 197 c 0
 268 205 l 0
 268 211 230 293 230 293 c 0
 236 293 255 313 259 313 c 0
 260 313 260 313 260 312 c 0
 260 311 l 0
 260 310 260 308 260 306 c 0
 260 295 264 273 264 267 c 0
 264 224 280 254 320 227 c 0
 344 195 l 0
 324 289 l 0
 324 297 304 314 304 319 c 0
 282 365 l 0
 295 389 311 400 322 421 c 0
 333 442 338 462 338 472 c 0
 338 474 338 476 338 477 c 0
 304 541 275 613 243 613 c 0
 230 613 217 601 202 573 c 0
 182 534 159 456 154 405 c 0
 154 404 154 402 154 400 c 0
 154 399 l 0
 159 399 225 537 234 537 c 0
 238 537 240 533 240 527 c 0
 240 466 240 447 257 447 c 0
 264 447 276 451 292 457 c 1
 194 321 l 0
 194 320 155 231 155 126 c 0
EndSplineSet
EndChar

StartChar: Adieresis
Encoding: 196 196 13
Width: 494
VWidth: 886
Flags: HW
LayerCount: 2
Fore
SplineSet
389 573 m 0
 393 568 394 559 394 550 c 0
 394 498 347 396 347 349 c 0
 347 342 348 337 350 333 c 0
 374 287 389 232 389 174 c 0
 389 125 378 74 353 26 c 0
 314 -50 271 -89 228 -89 c 0
 186 -89 143 -51 104 25 c 0
 101 30 100 37 100 46 c 0
 100 108 163 251 163 305 c 0
 163 312 162 317 160 321 c 0
 135 368 119 411 119 457 c 0
 119 493 128 531 152 576 c 0
 188 645 224 673 259 673 c 0
 301 673 344 633 389 573 c 0
155 126 m 0
 155 123 155 120 155 117 c 0
 155 67 178 46 209 46 c 0
 250 46 303 83 332 137 c 0
 334 140 335 142 335 145 c 0
 335 152 328 154 317 154 c 0
 286 154 218 131 194 131 c 0
 189 131 185 132 185 135 c 0
 185 136 186 137 187 138 c 0
 196 157 214 151 306 197 c 0
 268 205 l 0
 268 211 230 293 230 293 c 0
 236 293 255 313 259 313 c 0
 260 313 260 313 260 312 c 0
 260 311 l 0
 260 310 260 308 260 306 c 0
 260 295 264 273 264 267 c 0
 264 224 280 254 320 227 c 0
 344 195 l 0
 324 289 l 0
 324 297 304 314 304 319 c 0
 282 365 l 0
 295 389 311 400 322 421 c 0
 333 442 338 462 338 472 c 0
 338 474 338 476 338 477 c 0
 304 541 275 613 243 613 c 0
 230 613 217 601 202 573 c 0
 182 534 159 456 154 405 c 0
 154 404 154 402 154 400 c 0
 154 399 l 0
 159 399 225 537 234 537 c 0
 238 537 240 533 240 527 c 0
 240 466 240 447 257 447 c 0
 264 447 276 451 292 457 c 1
 194 321 l 0
 194 320 155 231 155 126 c 0
EndSplineSet
EndChar

StartChar: Aring
Encoding: 197 197 14
Width: 494
VWidth: 886
Flags: HW
LayerCount: 2
Fore
SplineSet
389 573 m 0
 393 568 394 559 394 550 c 0
 394 498 347 396 347 349 c 0
 347 342 348 337 350 333 c 0
 374 287 389 232 389 174 c 0
 389 125 378 74 353 26 c 0
 314 -50 271 -89 228 -89 c 0
 186 -89 143 -51 104 25 c 0
 101 30 100 37 100 46 c 0
 100 108 163 251 163 305 c 0
 163 312 162 317 160 321 c 0
 135 368 119 411 119 457 c 0
 119 493 128 531 152 576 c 0
 188 645 224 673 259 673 c 0
 301 673 344 633 389 573 c 0
155 126 m 0
 155 123 155 120 155 117 c 0
 155 67 178 46 209 46 c 0
 250 46 303 83 332 137 c 0
 334 140 335 142 335 145 c 0
 335 152 328 154 317 154 c 0
 286 154 218 131 194 131 c 0
 189 131 185 132 185 135 c 0
 185 136 186 137 187 138 c 0
 196 157 214 151 306 197 c 0
 268 205 l 0
 268 211 230 293 230 293 c 0
 236 293 255 313 259 313 c 0
 260 313 260 313 260 312 c 0
 260 311 l 0
 260 310 260 308 260 306 c 0
 260 295 264 273 264 267 c 0
 264 224 280 254 320 227 c 0
 344 195 l 0
 324 289 l 0
 324 297 304 314 304 319 c 0
 282 365 l 0
 295 389 311 400 322 421 c 0
 333 442 338 462 338 472 c 0
 338 474 338 476 338 477 c 0
 304 541 275 613 243 613 c 0
 230 613 217 601 202 573 c 0
 182 534 159 456 154 405 c 0
 154 404 154 402 154 400 c 0
 154 399 l 0
 159 399 225 537 234 537 c 0
 238 537 240 533 240 527 c 0
 240 466 240 447 257 447 c 0
 264 447 276 451 292 457 c 1
 194 321 l 0
 194 320 155 231 155 126 c 0
EndSplineSet
EndChar

StartChar: Egrave
Encoding: 200 200 15
Width: 573
VWidth: 887
Flags: HW
LayerCount: 2
Fore
SplineSet
84 293 m 0
 86 300 l 0
 86 306 254 273 254 530 c 0
 254 558 252 590 247 627 c 0
 245 635 245 642 245 649 c 0
 245 675 254 687 268 687 c 0
 325 687 475 490 490 321 c 0
 490 319 490 316 490 314 c 0
 490 197 290 -83 261 -83 c 0
 259 -83 257 -81 257 -77 c 0
 257 -76 257 -74 258 -72 c 0
 263 -44 266 -18 266 5 c 0
 266 163 154 218 84 293 c 0
415 297 m 0
 416 297 416 297 416 297 c 0
 417 297 417 298 417 299 c 0
 417 325 291 571 280 571 c 0
 279 571 279 571 279 569 c 0
 279 567 280 560 284 550 c 0
 305 487 314 440 314 403 c 0
 314 257 177 291 177 276 c 0
 177 274 180 272 185 268 c 0
 224 236 287 279 287 72 c 0
 287 70 287 68 287 65 c 0
 287 64 287 63 287 63 c 0
 287 49 287 43 289 43 c 0
 297 43 335 299 403 299 c 0
 407 299 411 299 415 297 c 0
EndSplineSet
Validated: 1
EndChar

StartChar: Eacute
Encoding: 201 201 16
Width: 573
VWidth: 887
Flags: HW
LayerCount: 2
Fore
SplineSet
84 293 m 0
 86 300 l 0
 86 306 254 273 254 530 c 0
 254 558 252 590 247 627 c 0
 245 635 245 642 245 649 c 0
 245 675 254 687 268 687 c 0
 325 687 475 490 490 321 c 0
 490 319 490 316 490 314 c 0
 490 197 290 -83 261 -83 c 0
 259 -83 257 -81 257 -77 c 0
 257 -76 257 -74 258 -72 c 0
 263 -44 266 -18 266 5 c 0
 266 163 154 218 84 293 c 0
415 297 m 0
 416 297 416 297 416 297 c 0
 417 297 417 298 417 299 c 0
 417 325 291 571 280 571 c 0
 279 571 279 571 279 569 c 0
 279 567 280 560 284 550 c 0
 305 487 314 440 314 403 c 0
 314 257 177 291 177 276 c 0
 177 274 180 272 185 268 c 0
 224 236 287 279 287 72 c 0
 287 70 287 68 287 65 c 0
 287 64 287 63 287 63 c 0
 287 49 287 43 289 43 c 0
 297 43 335 299 403 299 c 0
 407 299 411 299 415 297 c 0
EndSplineSet
Validated: 1
EndChar

StartChar: Ecircumflex
Encoding: 202 202 17
Width: 573
VWidth: 887
Flags: HW
LayerCount: 2
Fore
SplineSet
84 293 m 0
 86 300 l 0
 86 306 254 273 254 530 c 0
 254 558 252 590 247 627 c 0
 245 635 245 642 245 649 c 0
 245 675 254 687 268 687 c 0
 325 687 475 490 490 321 c 0
 490 319 490 316 490 314 c 0
 490 197 290 -83 261 -83 c 0
 259 -83 257 -81 257 -77 c 0
 257 -76 257 -74 258 -72 c 0
 263 -44 266 -18 266 5 c 0
 266 163 154 218 84 293 c 0
415 297 m 0
 416 297 416 297 416 297 c 0
 417 297 417 298 417 299 c 0
 417 325 291 571 280 571 c 0
 279 571 279 571 279 569 c 0
 279 567 280 560 284 550 c 0
 305 487 314 440 314 403 c 0
 314 257 177 291 177 276 c 0
 177 274 180 272 185 268 c 0
 224 236 287 279 287 72 c 0
 287 70 287 68 287 65 c 0
 287 64 287 63 287 63 c 0
 287 49 287 43 289 43 c 0
 297 43 335 299 403 299 c 0
 407 299 411 299 415 297 c 0
EndSplineSet
Validated: 1
EndChar

StartChar: Edieresis
Encoding: 203 203 18
Width: 573
VWidth: 887
Flags: HW
LayerCount: 2
Fore
SplineSet
84 293 m 0
 86 300 l 0
 86 306 254 273 254 530 c 0
 254 558 252 590 247 627 c 0
 245 635 245 642 245 649 c 0
 245 675 254 687 268 687 c 0
 325 687 475 490 490 321 c 0
 490 319 490 316 490 314 c 0
 490 197 290 -83 261 -83 c 0
 259 -83 257 -81 257 -77 c 0
 257 -76 257 -74 258 -72 c 0
 263 -44 266 -18 266 5 c 0
 266 163 154 218 84 293 c 0
415 297 m 0
 416 297 416 297 416 297 c 0
 417 297 417 298 417 299 c 0
 417 325 291 571 280 571 c 0
 279 571 279 571 279 569 c 0
 279 567 280 560 284 550 c 0
 305 487 314 440 314 403 c 0
 314 257 177 291 177 276 c 0
 177 274 180 272 185 268 c 0
 224 236 287 279 287 72 c 0
 287 70 287 68 287 65 c 0
 287 64 287 63 287 63 c 0
 287 49 287 43 289 43 c 0
 297 43 335 299 403 299 c 0
 407 299 411 299 415 297 c 0
EndSplineSet
Validated: 1
EndChar

StartChar: Ograve
Encoding: 210 210 19
Width: 569
VWidth: 889
Flags: HW
LayerCount: 2
Fore
SplineSet
85 299 m 0
 85 300 l 0
 85 355 101 375 127 375 c 0
 211 375 396 146 412 146 c 0
 413 146 413 146 413 147 c 0
 413 157 378 215 286 361 c 0
 249 419 235 471 235 514 c 0
 235 608 298 664 334 664 c 0
 347 664 357 655 357 638 c 0
 357 629 354 616 347 600 c 0
 314 521 301 470 301 436 c 0
 301 391 326 380 357 380 c 0
 385 380 416 388 438 388 c 0
 452 388 461 386 464 376 c 0
 478 335 485 293 485 254 c 0
 485 122 412 10 313 -32 c 0
 301 -38 288 -41 275 -41 c 0
 178 -41 85 110 85 299 c 0
240 120 m 0
 238 140 237 157 237 171 c 0
 237 200 240 220 240 226 c 0
 240 228 240 229 240 229 c 0
 237 229 228 213 202 178 c 0
 192 165 184 160 178 160 c 0
 158 160 157 222 156 222 c 0
 156 222 156 211 154 180 c 0
 153 167 152 155 152 143 c 0
 152 55 179 9 256 9 c 0
 265 9 274 10 284 10 c 0
 307 13 315 13 315 14 c 0
 315 16 254 27 240 120 c 0
EndSplineSet
Validated: 1
EndChar

StartChar: Oacute
Encoding: 211 211 20
Width: 569
VWidth: 889
Flags: HW
LayerCount: 2
Fore
SplineSet
85 299 m 0
 85 300 l 0
 85 355 101 375 127 375 c 0
 211 375 396 146 412 146 c 0
 413 146 413 146 413 147 c 0
 413 157 378 215 286 361 c 0
 249 419 235 471 235 514 c 0
 235 608 298 664 334 664 c 0
 347 664 357 655 357 638 c 0
 357 629 354 616 347 600 c 0
 314 521 301 470 301 436 c 0
 301 391 326 380 357 380 c 0
 385 380 416 388 438 388 c 0
 452 388 461 386 464 376 c 0
 478 335 485 293 485 254 c 0
 485 122 412 10 313 -32 c 0
 301 -38 288 -41 275 -41 c 0
 178 -41 85 110 85 299 c 0
240 120 m 0
 238 140 237 157 237 171 c 0
 237 200 240 220 240 226 c 0
 240 228 240 229 240 229 c 0
 237 229 228 213 202 178 c 0
 192 165 184 160 178 160 c 0
 158 160 157 222 156 222 c 0
 156 222 156 211 154 180 c 0
 153 167 152 155 152 143 c 0
 152 55 179 9 256 9 c 0
 265 9 274 10 284 10 c 0
 307 13 315 13 315 14 c 0
 315 16 254 27 240 120 c 0
EndSplineSet
Validated: 1
EndChar

StartChar: Ocircumflex
Encoding: 212 212 21
Width: 569
VWidth: 889
Flags: HW
LayerCount: 2
Fore
SplineSet
85 299 m 0
 85 300 l 0
 85 355 101 375 127 375 c 0
 211 375 396 146 412 146 c 0
 413 146 413 146 413 147 c 0
 413 157 378 215 286 361 c 0
 249 419 235 471 235 514 c 0
 235 608 298 664 334 664 c 0
 347 664 357 655 357 638 c 0
 357 629 354 616 347 600 c 0
 314 521 301 470 301 436 c 0
 301 391 326 380 357 380 c 0
 385 380 416 388 438 388 c 0
 452 388 461 386 464 376 c 0
 478 335 485 293 485 254 c 0
 485 122 412 10 313 -32 c 0
 301 -38 288 -41 275 -41 c 0
 178 -41 85 110 85 299 c 0
240 120 m 0
 238 140 237 157 237 171 c 0
 237 200 240 220 240 226 c 0
 240 228 240 229 240 229 c 0
 237 229 228 213 202 178 c 0
 192 165 184 160 178 160 c 0
 158 160 157 222 156 222 c 0
 156 222 156 211 154 180 c 0
 153 167 152 155 152 143 c 0
 152 55 179 9 256 9 c 0
 265 9 274 10 284 10 c 0
 307 13 315 13 315 14 c 0
 315 16 254 27 240 120 c 0
EndSplineSet
Validated: 1
EndChar

StartChar: Otilde
Encoding: 213 213 22
Width: 569
VWidth: 889
Flags: HW
LayerCount: 2
Fore
SplineSet
85 299 m 0
 85 300 l 0
 85 355 101 375 127 375 c 0
 211 375 396 146 412 146 c 0
 413 146 413 146 413 147 c 0
 413 157 378 215 286 361 c 0
 249 419 235 471 235 514 c 0
 235 608 298 664 334 664 c 0
 347 664 357 655 357 638 c 0
 357 629 354 616 347 600 c 0
 314 521 301 470 301 436 c 0
 301 391 326 380 357 380 c 0
 385 380 416 388 438 388 c 0
 452 388 461 386 464 376 c 0
 478 335 485 293 485 254 c 0
 485 122 412 10 313 -32 c 0
 301 -38 288 -41 275 -41 c 0
 178 -41 85 110 85 299 c 0
240 120 m 0
 238 140 237 157 237 171 c 0
 237 200 240 220 240 226 c 0
 240 228 240 229 240 229 c 0
 237 229 228 213 202 178 c 0
 192 165 184 160 178 160 c 0
 158 160 157 222 156 222 c 0
 156 222 156 211 154 180 c 0
 153 167 152 155 152 143 c 0
 152 55 179 9 256 9 c 0
 265 9 274 10 284 10 c 0
 307 13 315 13 315 14 c 0
 315 16 254 27 240 120 c 0
EndSplineSet
Validated: 1
EndChar

StartChar: Odieresis
Encoding: 214 214 23
Width: 569
VWidth: 889
Flags: HW
LayerCount: 2
Fore
SplineSet
85 299 m 0
 85 300 l 0
 85 355 101 375 127 375 c 0
 211 375 396 146 412 146 c 0
 413 146 413 146 413 147 c 0
 413 157 378 215 286 361 c 0
 249 419 235 471 235 514 c 0
 235 608 298 664 334 664 c 0
 347 664 357 655 357 638 c 0
 357 629 354 616 347 600 c 0
 314 521 301 470 301 436 c 0
 301 391 326 380 357 380 c 0
 385 380 416 388 438 388 c 0
 452 388 461 386 464 376 c 0
 478 335 485 293 485 254 c 0
 485 122 412 10 313 -32 c 0
 301 -38 288 -41 275 -41 c 0
 178 -41 85 110 85 299 c 0
240 120 m 0
 238 140 237 157 237 171 c 0
 237 200 240 220 240 226 c 0
 240 228 240 229 240 229 c 0
 237 229 228 213 202 178 c 0
 192 165 184 160 178 160 c 0
 158 160 157 222 156 222 c 0
 156 222 156 211 154 180 c 0
 153 167 152 155 152 143 c 0
 152 55 179 9 256 9 c 0
 265 9 274 10 284 10 c 0
 307 13 315 13 315 14 c 0
 315 16 254 27 240 120 c 0
EndSplineSet
Validated: 1
EndChar

StartChar: Igrave
Encoding: 204 204 24
Width: 571
VWidth: 878
Flags: HW
LayerCount: 2
Fore
SplineSet
85 297 m 0
 85 393 134 405 164 473 c 0
 179 507 187 564 249 564 c 0
 257 564 264 564 273 564 c 0
 288 564 303 561 317 544 c 0
 319 541 323 540 327 540 c 0
 349 540 392 583 410 583 c 0
 415 583 418 579 418 571 c 0
 418 571 418 571 418 570 c 0
 418 539 302 375 302 349 c 0
 302 348 303 348 303 347 c 0
 304 346 304 345 306 345 c 0
 321 345 381 463 399 463 c 0
 400 463 l 0
 449 453 488 378 488 297 c 0
 488 196 426 180 393 111 c 0
 355 34 344 -91 286 -91 c 0
 230 -91 216 24 180 95 c 0
 143 165 85 191 85 297 c 0
414 296 m 0
 414 316 411 323 404 323 c 0
 374 323 288 162 237 162 c 0
 235 162 232 162 230 163 c 0
 229 163 229 164 229 166 c 0
 229 200 286 490 286 524 c 0
 286 527 286 527 285 527 c 0
 213 527 156 423 156 296 c 0
 156 168 213 63 285 63 c 0
 357 63 414 168 414 296 c 0
EndSplineSet
Validated: 1
EndChar

StartChar: Iacute
Encoding: 205 205 25
Width: 571
VWidth: 878
Flags: HW
LayerCount: 2
Fore
SplineSet
85 297 m 0
 85 393 134 405 164 473 c 0
 179 507 187 564 249 564 c 0
 257 564 264 564 273 564 c 0
 288 564 303 561 317 544 c 0
 319 541 323 540 327 540 c 0
 349 540 392 583 410 583 c 0
 415 583 418 579 418 571 c 0
 418 571 418 571 418 570 c 0
 418 539 302 375 302 349 c 0
 302 348 303 348 303 347 c 0
 304 346 304 345 306 345 c 0
 321 345 381 463 399 463 c 0
 400 463 l 0
 449 453 488 378 488 297 c 0
 488 196 426 180 393 111 c 0
 355 34 344 -91 286 -91 c 0
 230 -91 216 24 180 95 c 0
 143 165 85 191 85 297 c 0
414 296 m 0
 414 316 411 323 404 323 c 0
 374 323 288 162 237 162 c 0
 235 162 232 162 230 163 c 0
 229 163 229 164 229 166 c 0
 229 200 286 490 286 524 c 0
 286 527 286 527 285 527 c 0
 213 527 156 423 156 296 c 0
 156 168 213 63 285 63 c 0
 357 63 414 168 414 296 c 0
EndSplineSet
Validated: 1
EndChar

StartChar: Icircumflex
Encoding: 206 206 26
Width: 571
VWidth: 878
Flags: HW
LayerCount: 2
Fore
SplineSet
85 297 m 0
 85 393 134 405 164 473 c 0
 179 507 187 564 249 564 c 0
 257 564 264 564 273 564 c 0
 288 564 303 561 317 544 c 0
 319 541 323 540 327 540 c 0
 349 540 392 583 410 583 c 0
 415 583 418 579 418 571 c 0
 418 571 418 571 418 570 c 0
 418 539 302 375 302 349 c 0
 302 348 303 348 303 347 c 0
 304 346 304 345 306 345 c 0
 321 345 381 463 399 463 c 0
 400 463 l 0
 449 453 488 378 488 297 c 0
 488 196 426 180 393 111 c 0
 355 34 344 -91 286 -91 c 0
 230 -91 216 24 180 95 c 0
 143 165 85 191 85 297 c 0
414 296 m 0
 414 316 411 323 404 323 c 0
 374 323 288 162 237 162 c 0
 235 162 232 162 230 163 c 0
 229 163 229 164 229 166 c 0
 229 200 286 490 286 524 c 0
 286 527 286 527 285 527 c 0
 213 527 156 423 156 296 c 0
 156 168 213 63 285 63 c 0
 357 63 414 168 414 296 c 0
EndSplineSet
Validated: 1
EndChar

StartChar: Idieresis
Encoding: 207 207 27
Width: 571
VWidth: 878
Flags: HW
LayerCount: 2
Fore
SplineSet
85 297 m 0
 85 393 134 405 164 473 c 0
 179 507 187 564 249 564 c 0
 257 564 264 564 273 564 c 0
 288 564 303 561 317 544 c 0
 319 541 323 540 327 540 c 0
 349 540 392 583 410 583 c 0
 415 583 418 579 418 571 c 0
 418 571 418 571 418 570 c 0
 418 539 302 375 302 349 c 0
 302 348 303 348 303 347 c 0
 304 346 304 345 306 345 c 0
 321 345 381 463 399 463 c 0
 400 463 l 0
 449 453 488 378 488 297 c 0
 488 196 426 180 393 111 c 0
 355 34 344 -91 286 -91 c 0
 230 -91 216 24 180 95 c 0
 143 165 85 191 85 297 c 0
414 296 m 0
 414 316 411 323 404 323 c 0
 374 323 288 162 237 162 c 0
 235 162 232 162 230 163 c 0
 229 163 229 164 229 166 c 0
 229 200 286 490 286 524 c 0
 286 527 286 527 285 527 c 0
 213 527 156 423 156 296 c 0
 156 168 213 63 285 63 c 0
 357 63 414 168 414 296 c 0
EndSplineSet
Validated: 1
EndChar

StartChar: a
Encoding: 97 97 28
Width: 494
VWidth: 886
Flags: HW
LayerCount: 2
Fore
SplineSet
389 573 m 0
 393 568 394 559 394 550 c 0
 394 498 347 396 347 349 c 0
 347 342 348 337 350 333 c 0
 374 287 389 232 389 174 c 0
 389 125 378 74 353 26 c 0
 314 -50 271 -89 228 -89 c 0
 186 -89 143 -51 104 25 c 0
 101 30 100 37 100 46 c 0
 100 108 163 251 163 305 c 0
 163 312 162 317 160 321 c 0
 135 368 119 411 119 457 c 0
 119 493 128 531 152 576 c 0
 188 645 224 673 259 673 c 0
 301 673 344 633 389 573 c 0
155 126 m 0
 155 123 155 120 155 117 c 0
 155 67 178 46 209 46 c 0
 250 46 303 83 332 137 c 0
 334 140 335 142 335 145 c 0
 335 152 328 154 317 154 c 0
 286 154 218 131 194 131 c 0
 189 131 185 132 185 135 c 0
 185 136 186 137 187 138 c 0
 196 157 214 151 306 197 c 0
 268 205 l 0
 268 211 230 293 230 293 c 0
 236 293 255 313 259 313 c 0
 260 313 260 313 260 312 c 0
 260 311 l 0
 260 310 260 308 260 306 c 0
 260 295 264 273 264 267 c 0
 264 224 280 254 320 227 c 0
 344 195 l 0
 324 289 l 0
 324 297 304 314 304 319 c 0
 282 365 l 0
 295 389 311 400 322 421 c 0
 333 442 338 462 338 472 c 0
 338 474 338 476 338 477 c 0
 304 541 275 613 243 613 c 0
 230 613 217 601 202 573 c 0
 182 534 159 456 154 405 c 0
 154 404 154 402 154 400 c 0
 154 399 l 0
 159 399 225 537 234 537 c 0
 238 537 240 533 240 527 c 0
 240 466 240 447 257 447 c 0
 264 447 276 451 292 457 c 1
 194 321 l 0
 194 320 155 231 155 126 c 0
EndSplineSet
EndChar

StartChar: b
Encoding: 98 98 29
Width: 566
VWidth: 886
Flags: HW
LayerCount: 2
Fore
SplineSet
394 -13 m 0
 392 -16 381 -16 379 -16 c 0
 353 -16 317 146 292 150 c 0
 292 150 l 0
 285 150 283 118 283 77 c 0
 283 44 284 5 284 -29 c 0
 284 -69 282 -99 275 -99 c 0
 261 -64 l 0
 260 -64 257 -38 257 -23 c 0
 257 12 261 32 261 89 c 0
 261 127 260 161 255 173 c 0
 254 175 253 177 252 177 c 0
 237 177 203 44 196 44 c 0
 196 44 l 24
 177 42 147 41 147 41 c 0
 135 41 125 48 113 82 c 0
 94 134 86 186 86 237 c 0
 86 360 133 476 197 562 c 0
 203 571 204 587 204 604 c 0
 204 614 204 623 204 632 c 0
 204 650 200 658 207 663 c 0
 212 670 l 2
 212 670 227 609 245 535 c 0
 250 514 254 493 258 470 c 0
 262 444 266 417 268 392 c 0
 269 377 281 344 283 390 c 0
 285 417 285 449 285 479 c 0
 285 540 283 597 283 597 c 1
 283 607 284 615 284 623 c 0
 285 666 285 681 286 687 c 0
 287 689 287 690 288 691 c 0
 306 689 307 466 323 456 c 0
 326 454 329 453 331 453 c 0
 364 453 401 545 427 545 c 0
 434 545 439 540 444 526 c 0
 469 459 481 382 481 306 c 0
 481 183 441 72 394 -13 c 0
196 454 m 0
 193 473 188 481 183 481 c 0
 163 481 130 336 130 225 c 0
 130 191 133 160 140 137 c 0
 146 115 153 107 161 107 c 0
 192 107 234 269 280 269 c 0
 304 269 329 227 354 99 c 0
 356 89 358 85 362 85 c 0
 385 85 433 345 433 455 c 0
 433 484 429 503 421 503 c 0
 413 503 399 483 379 437 c 0
 366 405 352 381 341 361 c 0
 315 317 292 300 274 300 c 0
 231 300 206 392 196 454 c 0
EndSplineSet
EndChar

StartChar: e
Encoding: 101 101 30
Width: 573
VWidth: 887
Flags: HW
LayerCount: 2
Fore
SplineSet
84 293 m 0
 86 300 l 0
 86 306 254 273 254 530 c 0
 254 558 252 590 247 627 c 0
 245 635 245 642 245 649 c 0
 245 675 254 687 268 687 c 0
 325 687 475 490 490 321 c 0
 490 319 490 316 490 314 c 0
 490 197 290 -83 261 -83 c 0
 259 -83 257 -81 257 -77 c 0
 257 -76 257 -74 258 -72 c 0
 263 -44 266 -18 266 5 c 0
 266 163 154 218 84 293 c 0
415 297 m 0
 416 297 416 297 416 297 c 0
 417 297 417 298 417 299 c 0
 417 325 291 571 280 571 c 0
 279 571 279 571 279 569 c 0
 279 567 280 560 284 550 c 0
 305 487 314 440 314 403 c 0
 314 257 177 291 177 276 c 0
 177 274 180 272 185 268 c 0
 224 236 287 279 287 72 c 0
 287 70 287 68 287 65 c 0
 287 64 287 63 287 63 c 0
 287 49 287 43 289 43 c 0
 297 43 335 299 403 299 c 0
 407 299 411 299 415 297 c 0
EndSplineSet
EndChar

StartChar: f
Encoding: 102 102 31
Width: 562
VWidth: 877
Flags: HW
LayerCount: 2
Fore
SplineSet
265 -60 m 0
 247 -60 232 -81 216 -81 c 0
 213 -81 209 -80 206 -77 c 0
 125 -26 97 15 97 186 c 0
 97 271 137 306 161 370 c 0
 163 375 164 380 164 385 c 0
 164 434 79 472 79 521 c 0
 79 526 80 530 81 535 c 0
 86 549 111 553 142 553 c 0
 195 553 267 540 283 540 c 0
 310 540 365 555 411 555 c 0
 443 555 471 548 483 523 c 0
 484 523 484 522 484 521 c 0
 484 503 402 501 402 481 c 0
 402 481 402 479 403 478 c 0
 431 412 444 323 444 230 c 0
 444 67 407 -5 332 -62 c 0
 325 -67 319 -70 312 -70 c 0
 297 -70 283 -60 265 -60 c 0
241 470 m 0
 241 474 242 477 242 480 c 0
 242 481 242 481 241 481 c 0
 232 481 129 211 122 82 c 0
 122 77 121 72 121 67 c 0
 121 9 142 -6 170 -6 c 0
 199 -6 237 10 269 10 c 0
 298 10 370 24 395 85 c 0
 412 127 426 211 426 278 c 0
 426 334 416 377 393 377 c 0
 392 377 391 377 390 377 c 0
 342 369 326 343 326 304 c 0
 326 248 360 166 381 82 c 0
 381 81 381 80 381 79 c 0
 381 69 363 66 342 66 c 0
 327 66 309 67 295 67 c 0
 279 67 267 66 263 61 c 0
 259 56 254 53 249 53 c 0
 231 53 211 85 195 85 c 0
 192 85 191 85 189 83 c 0
 188 82 188 82 187 82 c 0
 184 82 172 61 172 67 c 0
 346 415 l 1
 354 462 l 0
 353 462 287 350 246 350 c 0
 233 350 230 352 230 384 c 0
 230 404 233 432 241 470 c 0
EndSplineSet
EndChar

StartChar: i
Encoding: 105 105 32
Width: 571
VWidth: 878
Flags: HW
LayerCount: 2
Fore
SplineSet
85 297 m 0
 85 393 134 405 164 473 c 0
 179 507 187 564 249 564 c 0
 257 564 264 564 273 564 c 0
 288 564 303 561 317 544 c 0
 319 541 323 540 327 540 c 0
 349 540 392 583 410 583 c 0
 415 583 418 579 418 571 c 0
 418 571 418 571 418 570 c 0
 418 539 302 375 302 349 c 0
 302 348 303 348 303 347 c 0
 304 346 304 345 306 345 c 0
 321 345 381 463 399 463 c 0
 400 463 l 0
 449 453 488 378 488 297 c 0
 488 196 426 180 393 111 c 0
 355 34 344 -91 286 -91 c 0
 230 -91 216 24 180 95 c 0
 143 165 85 191 85 297 c 0
414 296 m 0
 414 316 411 323 404 323 c 0
 374 323 288 162 237 162 c 0
 235 162 232 162 230 163 c 0
 229 163 229 164 229 166 c 0
 229 200 286 490 286 524 c 0
 286 527 286 527 285 527 c 0
 213 527 156 423 156 296 c 0
 156 168 213 63 285 63 c 0
 357 63 414 168 414 296 c 0
EndSplineSet
EndChar

StartChar: l
Encoding: 108 108 33
Width: 527
VWidth: 887
Flags: HW
LayerCount: 2
Fore
SplineSet
93 236 m 0
 93 330 102 447 132 515 c 0
 141 535 136 604 154 605 c 0
 161 605 167 606 172 606 c 0
 212 606 224 595 224 580 c 0
 224 558 197 527 197 510 c 0
 197 504 201 500 212 499 c 0
 213 499 214 499 215 499 c 0
 253 499 304 543 338 543 c 0
 350 543 360 538 366 524 c 0
 377 500 392 506 403 472 c 0
 410 451 416 428 421 404 c 0
 430 361 430 349 430 302 c 0
 430 295 430 288 429 278 c 0
 429 267 262 209 262 187 c 0
 262 184 264 183 267 183 c 0
 285 183 341 216 360 216 c 0
 364 216 366 215 366 211 c 0
 366 210 l 0
 366 163 426 70 426 56 c 0
 404 -1 l 0
 383 34 331 55 294 55 c 0
 272 55 255 48 255 31 c 0
 255 16 269 -5 302 -35 c 0
 323 -53 331 -64 331 -70 c 0
 331 -73 328 -75 322 -75 c 0
 295 -75 212 -40 195 -40 c 0
 193 -40 193 -40 192 -40 c 0
 110 12 l 0
 101 31 105 78 100 103 c 0
 94 133 93 156 93 187 c 0
 93 202 93 218 93 236 c 0
286 241 m 0
 249 311 233 362 233 395 c 0
 233 423 245 437 262 437 c 0
 294 437 346 394 394 307 c 0
 399 298 393 327 391 335 c 0
 310 453 l 0
 301 469 295 474 290 474 c 0
 283 474 276 464 258 464 c 0
 239 464 229 468 223 468 c 0
 215 468 212 462 202 436 c 0
 201 434 201 431 201 428 c 0
 201 394 241 292 241 264 c 0
 241 262 240 260 240 259 c 0
 239 256 237 255 236 255 c 0
 218 255 170 374 158 374 c 0
 157 374 156 374 156 373 c 0
 137 343 128 310 128 273 c 0
 128 212 152 143 188 67 c 0
 191 59 193 46 208 46 c 0
 221 46 244 55 284 84 c 0
 287 86 351 116 358 133 c 0
 358 134 359 135 359 136 c 0
 359 158 213 129 188 181 c 0
 286 241 l 0
EndSplineSet
EndChar

StartChar: n
Encoding: 110 110 34
Width: 571
VWidth: 888
Flags: HW
LayerCount: 2
Fore
SplineSet
85 299 m 0
 85 375 151 377 171 438 c 0
 206 547 214 687 286 687 c 0
 358 687 358 515 393 404 c 0
 411 346 488 374 488 299 c 0
 488 131 439 -23 355 -65 c 0
 353 -66 351 -67 350 -67 c 0
 330 -67 309 10 287 10 c 0
 268 10 250 -74 232 -74 c 0
 232 -74 230 -74 229 -74 c 0
 145 -27 85 123 85 299 c 0
414 298 m 0
 414 302 414 304 413 304 c 0
 405 304 370 167 355 167 c 0
 353 167 353 167 351 171 c 0
 328 235 360 588 315 588 c 0
 306 588 307 143 299 140 c 0
 296 139 292 133 288 133 c 0
 282 133 275 142 273 184 c 0
 272 198 272 215 272 234 c 0
 272 292 275 368 275 433 c 0
 275 490 273 538 265 558 c 0
 264 560 263 567 261 575 c 0
 260 581 255 584 253 588 c 0
 251 592 247 580 244 580 c 0
 237 570 l 0
 228 570 227 493 227 407 c 0
 227 374 227 340 227 308 c 0
 227 228 226 161 219 161 c 0
 218 161 217 162 217 162 c 0
 196 193 166 306 158 306 c 0
 157 306 156 304 156 298 c 0
 156 289 156 279 156 269 c 0
 156 186 157 61 188 24 c 0
 192 20 196 18 200 18 c 0
 224 18 262 65 285 65 c 0
 308 65 355 27 383 27 c 0
 390 27 396 30 400 35 c 0
 415 55 419 99 419 147 c 0
 419 199 414 257 414 298 c 0
EndSplineSet
EndChar

StartChar: o
Encoding: 111 111 35
Width: 569
VWidth: 889
Flags: HW
LayerCount: 2
Fore
SplineSet
85 299 m 0
 85 300 l 0
 85 355 101 375 127 375 c 0
 211 375 396 146 412 146 c 0
 413 146 413 146 413 147 c 0
 413 157 378 215 286 361 c 0
 249 419 235 471 235 514 c 0
 235 608 298 664 334 664 c 0
 347 664 357 655 357 638 c 0
 357 629 354 616 347 600 c 0
 314 521 301 470 301 436 c 0
 301 391 326 380 357 380 c 0
 385 380 416 388 438 388 c 0
 452 388 461 386 464 376 c 0
 478 335 485 293 485 254 c 0
 485 122 412 10 313 -32 c 0
 301 -38 288 -41 275 -41 c 0
 178 -41 85 110 85 299 c 0
240 120 m 0
 238 140 237 157 237 171 c 0
 237 200 240 220 240 226 c 0
 240 228 240 229 240 229 c 0
 237 229 228 213 202 178 c 0
 192 165 184 160 178 160 c 0
 158 160 157 222 156 222 c 0
 156 222 156 211 154 180 c 0
 153 167 152 155 152 143 c 0
 152 55 179 9 256 9 c 0
 265 9 274 10 284 10 c 0
 307 13 315 13 315 14 c 0
 315 16 254 27 240 120 c 0
EndSplineSet
EndChar
